<svg xmlns="http://www.w3.org/2000/svg" id="mainsvg" width="242.32500171661377" height="340" viewBox="-27.62916660308838 -10 242.32500171661377 340"><defs><marker id="arrow" viewBox="0 0 10 10" refX="10" refY="5" markerWidth="6" markerHeight="6" orient="auto-start-reverse"><path d="M 0 0 L 10 5 L 0 10 z"/></marker><filter id="shadowfilter" x="-20%" y="-20%" width="150%" height="150%" filterUnits="objectBoundingBox" primitiveUnits="userSpaceOnUse" color-interpolation-filters="linearRGB"><feDropShadow stdDeviation="4 4" in="SourceGraphic" dx="1" dy="1" flood-color="#BABABA" flood-opacity="0.9" x="0%" y="0%" width="100%" height="100%" result="dropShadow"/></filter><filter id="shadowfilter2" x="0" y="0" width="200%" height="200%" filterUnits="userSpaceOnUse" color-interpolation-filters="sRGB"><feFlood flood-opacity="0" result="BackgroundImageFix"/><feColorMatrix in="SourceAlpha" type="matrix" values="0 0 0 0 0 0 0 0 0 0 0 0 0 0 0 0 0 0 127 0"/><feOffset dy="4" dx="2"/><feGaussianBlur stdDeviation="2"/><feColorMatrix type="matrix" values="0 0 0 0 0 0 0 0 0 0 0 0 0 0 0 0 0 0 0.25 0"/><feBlend mode="normal" in2="BackgroundImageFix" result="effect1_dropShadow"/><feBlend mode="normal" in="SourceGraphic" in2="effect1_dropShadow" result="shape"/></filter></defs><path transform="rotate(0,0, 0) scale(1)" d="M50.5,25.268217009538553L66.20972220102946,30.72351417461546C81.91944440205891,36.178811339692366,113.33888880411784,47.08940566984618,129.0486110051473,56.71136950158976C144.75833320617676,66.33333333333333,144.75833320617676,74.66666666666667,144.75833320617676,78.83333333333333L144.75833320617676,83" stroke="black" stroke-dasharray="none" stroke-width="1" fill="none" marker-end="url(#arrow)"/><path transform="rotate(0,0, 0) scale(1)" d="M25.25,33L25.25,37.166666666666664C25.25,41.333333333333336,25.25,49.666666666666664,25.25,60.75C25.25,71.83333333333333,25.25,85.66666666666667,25.25,101.08333333333333C25.25,116.5,25.25,133.5,27.829513881720747,147.75C30.409027763441497,162,35.56805552688299,173.5,38.147569408603744,179.25L40.727083290324494,185" stroke="black" stroke-dasharray="none" stroke-width="1" fill="none" marker-end="url(#arrow)"/><path transform="rotate(0,0, 0) scale(1)" d="M8.201656651784138,33L3.8965194426387177,37.166666666666664C-0.40861776650670123,41.333333333333336,-9.01889218479754,49.666666666666664,-13.32402939394296,60.75C-17.62916660308838,71.83333333333333,-17.62916660308838,85.66666666666667,-17.62916660308838,101.08333333333333C-17.62916660308838,116.5,-17.62916660308838,133.5,-17.62916660308838,150.5C-17.62916660308838,167.5,-17.62916660308838,184.5,-17.62916660308838,201.5C-17.62916660308838,218.5,-17.62916660308838,235.5,-10.215236878862568,249.75C-2.8013071546367576,264,12.026552293814865,275.5,19.440482018040672,281.25L26.854411742266485,287" stroke="black" stroke-dasharray="none" stroke-width="1" fill="none" marker-end="url(#arrow)"/><path transform="rotate(0,0, 0) scale(1)" d="M126.16482816022986,116L119.68527337149078,121.75C113.20571858275171,127.5,100.24660900527356,139,89.35214414316066,150.5C78.45767928104775,162,69.62785913430008,173.5,65.21294906092625,179.25L60.79803898755242,185" stroke="black" stroke-dasharray="none" stroke-width="1" fill="none" marker-end="url(#arrow)"/><g transform="translate(65.21249866485596, 150.5)"><rect width="40.63333511352539" height="19" stroke="none" fill="white" stroke-width="1" transform="translate(0, 0)" rx="5"/><text fill="black" font-size="14" font-weight="normal" transform="translate(1, 13.5)" alignment-baseline="middle">Store</text></g><path transform="rotate(0,0, 0) scale(1)" d="M48.12916660308838,218L48.12916660308838,223.75C48.12916660308838,229.5,48.12916660308838,241,48.12916660308838,252.5C48.12916660308838,264,48.12916660308838,275.5,48.12916660308838,281.25L48.12916660308838,287" stroke="black" stroke-dasharray="none" stroke-width="1" fill="none" marker-end="url(#arrow)"/><g transform="translate(26.054165840148926, 252.5)"><rect width="40.63333511352539" height="19" stroke="none" fill="white" stroke-width="1" transform="translate(0, 0)" rx="5"/><text fill="black" font-size="14" font-weight="normal" transform="translate(1, 13.5)" alignment-baseline="middle">Store</text></g><path transform="rotate(0,0, 0) scale(1)" d="M85.93749904632568,287.11281912694824L99.24722146987915,281.3440159391235C112.55694389343262,275.5752127512988,139.17638874053955,264.03760637564943,152.48611116409302,249.7688031878247C165.79583358764648,235.5,165.79583358764648,218.5,165.79583358764648,201.5C165.79583358764648,184.5,165.79583358764648,167.5,163.42395854463766,153.25C161.0520835016288,139,156.30833341561112,127.5,153.9364583726023,121.75L151.56458332959343,116" stroke="black" stroke-dasharray="none" stroke-width="1" fill="none" marker-end="url(#arrow)"/><g transform="translate(116.61249923706055, 201.5)"><rect width="88.08333587646484" height="19" stroke="none" fill="white" stroke-width="1" transform="translate(0, 0)" rx="5"/><text fill="black" font-size="14" font-weight="normal" transform="translate(1, 13.5)" alignment-baseline="middle">components</text></g><g transform="translate(101.4416675567627, 83)"><rect width="86.63333129882812" height="33" stroke="#555656" fill="white" stroke-width="1.3" transform="translate(0, 0)" rx="2" filter="url(#shadowfilter)"/><text fill="black" font-size="14" font-weight="normal" transform="translate(8, 20.5)" alignment-baseline="middle" font-family="Bookman"> Container </text></g><g transform="translate(0, 0)"><rect width="50.5" height="33" stroke="#555656" fill="white" stroke-width="1.3" transform="translate(0, 0)" rx="2" filter="url(#shadowfilter)"/><text fill="black" font-size="14" font-weight="normal" transform="translate(8, 20.5)" alignment-baseline="middle" font-family="Bookman"> Type </text></g><g transform="translate(17.37083339691162, 185)"><rect width="61.516666412353516" height="33" stroke="#555656" fill="white" stroke-width="1.3" transform="translate(0, 0)" rx="2" filter="url(#shadowfilter)"/><text fill="black" font-size="14" font-weight="normal" transform="translate(8, 20.5)" alignment-baseline="middle" font-family="Bookman"> Action </text></g><g transform="translate(10.320834159851074, 287)"><rect width="75.61666488647461" height="33" stroke="#555656" fill="white" stroke-width="1.3" transform="translate(0, 0)" rx="2" filter="url(#shadowfilter)"/><text fill="black" font-size="14" font-weight="normal" transform="translate(8, 20.5)" alignment-baseline="middle" font-family="Bookman"> Reducer </text></g></svg>