<svg xmlns="http://www.w3.org/2000/svg" id="mainsvg" width="269.8333282470703" height="294" viewBox="-10 -10 269.8333282470703 294"><defs><marker id="arrow" viewBox="0 0 10 10" refX="10" refY="5" markerWidth="6" markerHeight="6" orient="auto-start-reverse"><path d="M 0 0 L 10 5 L 0 10 z"/></marker><filter id="shadowfilter" x="-20%" y="-20%" width="150%" height="150%" filterUnits="objectBoundingBox" primitiveUnits="userSpaceOnUse" color-interpolation-filters="linearRGB"><feDropShadow stdDeviation="4 4" in="SourceGraphic" dx="1" dy="1" flood-color="#BABABA" flood-opacity="0.9" x="0%" y="0%" width="100%" height="100%" result="dropShadow"/></filter><filter id="shadowfilter2" x="0" y="0" width="200%" height="200%" filterUnits="userSpaceOnUse" color-interpolation-filters="sRGB"><feFlood flood-opacity="0" result="BackgroundImageFix"/><feColorMatrix in="SourceAlpha" type="matrix" values="0 0 0 0 0 0 0 0 0 0 0 0 0 0 0 0 0 0 127 0"/><feOffset dy="4" dx="2"/><feGaussianBlur stdDeviation="2"/><feColorMatrix type="matrix" values="0 0 0 0 0 0 0 0 0 0 0 0 0 0 0 0 0 0 0.25 0"/><feBlend mode="normal" in2="BackgroundImageFix" result="effect1_dropShadow"/><feBlend mode="normal" in="SourceGraphic" in2="effect1_dropShadow" result="shape"/></filter></defs><path transform="rotate(0,0, 0) scale(1)" d="M121.76759131160783,31L136.33549199673374,35.166666666666664C150.90339268185963,39.333333333333336,180.03919405211147,47.666666666666664,194.60709473723736,56C209.17499542236328,64.33333333333333,209.17499542236328,72.66666666666667,209.17499542236328,76.83333333333333L209.17499542236328,81" stroke="black" stroke-dasharray="none" stroke-width="1" fill="none" marker-end="url(#arrow)"/><path transform="rotate(0,0, 0) scale(1)" d="M67.57500076293945,31L67.57500076293945,35.166666666666664C67.57500076293945,39.333333333333336,67.57500076293945,47.666666666666664,67.57500076293945,58.583333333333336C67.57500076293945,69.5,67.57500076293945,83,67.57500076293945,96.5C67.57500076293945,110,67.57500076293945,123.5,72.08803212986071,134.41666666666666C76.60106349678198,145.33333333333334,85.62712623062448,153.66666666666666,90.14015759754574,157.83333333333334L94.65318896446699,162" stroke="black" stroke-dasharray="none" stroke-width="1" fill="none" marker-end="url(#arrow)"/><path transform="rotate(0,0, 0) scale(1)" d="M43.13220309033806,31L36.561558554692525,35.166666666666664C29.990914019046986,39.333333333333336,16.849624947755917,47.666666666666664,10.27898041211038,58.583333333333336C3.7083358764648438,69.5,3.7083358764648438,83,3.7083358764648438,96.5C3.7083358764648438,110,3.7083358764648438,123.5,3.7083358764648438,137C3.7083358764648438,150.5,3.7083358764648438,164,3.7083358764648438,177.5C3.7083358764648438,191,3.7083358764648438,204.5,14.792011779031634,215.41666666666666C25.875687681598425,226.33333333333334,48.043039486732006,234.66666666666666,59.126715389298795,238.83333333333334L70.21039129186559,243" stroke="black" stroke-dasharray="none" stroke-width="1" fill="none" marker-end="url(#arrow)"/><path transform="rotate(0,0, 0) scale(1)" d="M188.55935824358906,112L183.01752029230565,116.16666666666667C177.47568234102224,120.33333333333333,166.39200643845547,128.66666666666666,156.33713712025082,137C146.28226780204616,145.33333333333334,137.25620506820366,153.66666666666666,132.74317370128242,157.83333333333334L128.23014233436115,162" stroke="black" stroke-dasharray="none" stroke-width="1" fill="none" marker-end="url(#arrow)"/><path transform="rotate(0,0, 0) scale(1)" d="M111.44166564941406,193L111.44166564941406,197.16666666666666C111.44166564941406,201.33333333333334,111.44166564941406,209.66666666666666,111.44166564941406,218C111.44166564941406,226.33333333333334,111.44166564941406,234.66666666666666,111.44166564941406,238.83333333333334L111.44166564941406,243" stroke="black" stroke-dasharray="none" stroke-width="1" fill="none" marker-end="url(#arrow)"/><path transform="rotate(0,0, 0) scale(1)" d="M152.67294000696253,243L163.75661590952933,238.83333333333334C174.84029181209613,234.66666666666666,197.00764361722972,226.33333333333334,208.09131951979649,215.41666666666666C219.17499542236328,204.5,219.17499542236328,191,219.17499542236328,177.5C219.17499542236328,164,219.17499542236328,150.5,218.14618883800117,139.58333333333334C217.117382253639,128.66666666666666,215.0597690849147,120.33333333333333,214.0309625005526,116.16666666666667L213.00215591619045,112" stroke="black" stroke-dasharray="none" stroke-width="1" fill="none" marker-end="url(#arrow)"/><g transform="translate(168.51666259765625, 81)"><rect width="81.31666564941406" height="31" stroke="#555656" fill="white" stroke-width="1.3" transform="translate(0, 0)" rx="2" filter="url(#shadowfilter)"/><text fill="black" font-size="14" font-weight="normal" transform="translate(8, 19.5)" alignment-baseline="middle" font-family="Bookman"> Component </text></g><g transform="translate(0, 0)"><rect width="135.1500015258789" height="31" stroke="#555656" fill="white" stroke-width="1.3" transform="translate(0, 0)" rx="2" filter="url(#shadowfilter)"/><text fill="black" font-size="14" font-weight="normal" transform="translate(8, 19.5)" alignment-baseline="middle" font-family="Bookman"> Type (in store folder) </text></g><g transform="translate(38.708335876464844, 162)"><rect width="145.46665954589844" height="31" stroke="#555656" fill="white" stroke-width="1.3" transform="translate(0, 0)" rx="2" filter="url(#shadowfilter)"/><text fill="black" font-size="14" font-weight="normal" transform="translate(8, 19.5)" alignment-baseline="middle" font-family="Bookman"> Action (in store folder) </text></g><g transform="translate(34.43333435058594, 243)"><rect width="154.01666259765625" height="31" stroke="#555656" fill="white" stroke-width="1.3" transform="translate(0, 0)" rx="2" filter="url(#shadowfilter)"/><text fill="black" font-size="14" font-weight="normal" transform="translate(8, 19.5)" alignment-baseline="middle" font-family="Bookman"> Reducer (in store folder) </text></g></svg>