<svg xmlns="http://www.w3.org/2000/svg" id="mainsvg" width="815.9166641235352" height="371" viewBox="-10 -10 815.9166641235352 371"><defs><marker id="arrow" viewBox="0 0 10 10" refX="10" refY="5" markerWidth="6" markerHeight="6" orient="auto-start-reverse"><path d="M 0 0 L 10 5 L 0 10 z"/></marker><filter id="shadowfilter" x="-20%" y="-20%" width="150%" height="150%" filterUnits="objectBoundingBox" primitiveUnits="userSpaceOnUse" color-interpolation-filters="linearRGB"><feDropShadow stdDeviation="4 4" in="SourceGraphic" dx="1" dy="1" flood-color="#BABABA" flood-opacity="0.9" x="0%" y="0%" width="100%" height="100%" result="dropShadow"/></filter><filter id="shadowfilter2" x="0" y="0" width="200%" height="200%" filterUnits="userSpaceOnUse" color-interpolation-filters="sRGB"><feFlood flood-opacity="0" result="BackgroundImageFix"/><feColorMatrix in="SourceAlpha" type="matrix" values="0 0 0 0 0 0 0 0 0 0 0 0 0 0 0 0 0 0 127 0"/><feOffset dy="4" dx="2"/><feGaussianBlur stdDeviation="2"/><feColorMatrix type="matrix" values="0 0 0 0 0 0 0 0 0 0 0 0 0 0 0 0 0 0 0.25 0"/><feBlend mode="normal" in2="BackgroundImageFix" result="effect1_dropShadow"/><feBlend mode="normal" in="SourceGraphic" in2="effect1_dropShadow" result="shape"/></filter></defs><g transform="translate(0, 0)"><rect width="156.64999389648438" height="37" stroke="#555656" fill="white" stroke-width="1.3" transform="translate(0, 0)" rx="2" filter="url(#shadowfilter)"/><text fill="black" font-size="16" font-weight="normal" transform="translate(10, 22.5)" alignment-baseline="middle" font-family="Bookman"> Test Maker (Actions) </text></g><g transform="translate(180.64999389648438, 0)"><rect width="195.11666870117188" height="37" stroke="#555656" fill="white" stroke-width="1.3" transform="translate(0, 0)" rx="2" filter="url(#shadowfilter)"/><text fill="black" font-size="16" font-weight="normal" transform="translate(10, 22.5)" alignment-baseline="middle" font-family="Bookman"> Form action (in test maker) </text></g><g transform="translate(399.76666259765625, 0)"><rect width="129.73332977294922" height="37" stroke="#555656" fill="white" stroke-width="1.3" transform="translate(0, 0)" rx="2" filter="url(#shadowfilter)"/><text fill="black" font-size="16" font-weight="normal" transform="translate(10, 22.5)" alignment-baseline="middle" font-family="Bookman"> Thred Test (Test) </text></g><g transform="translate(553.4999923706055, 0)"><rect width="84.13333129882812" height="37" stroke="#555656" fill="white" stroke-width="1.3" transform="translate(0, 0)" rx="2" filter="url(#shadowfilter)"/><text fill="black" font-size="16" font-weight="normal" transform="translate(10, 22.5)" alignment-baseline="middle" font-family="Bookman"> View Test </text></g><path d="M 78.32499694824219,49 L 88.32499694824219 49 L 88.32499694824219 66 L 78.32499694824219 66" fill="none" stroke="black" stroke-dasharray="none" stroke-width="1.6" marker-end="url(#arrow)"/><path d="M 78.32499694824219,99 L 278.2083282470703 99" fill="none" stroke="black" stroke-dasharray="none" stroke-width="1" marker-end="url(#arrow)"/><path d="M 278.2083282470703,107 L 288.2083282470703 107 L 288.2083282470703 124 L 278.2083282470703 124" fill="none" stroke="black" stroke-dasharray="4,4" stroke-width="1" marker-end="url(#arrow)"/><path d="M 278.2083282470703,157 L 464.63332748413086 157" fill="none" stroke="black" stroke-dasharray="none" stroke-width="1" marker-end="url(#arrow)"/><path d="M 464.63332748413086,186 L 278.2083282470703 186" fill="none" stroke="black" stroke-dasharray="none" stroke-width="1" marker-end="url(#arrow)"/><path d="M 464.63332748413086,194 L 474.63332748413086 194 L 474.63332748413086 211 L 464.63332748413086 211" fill="none" stroke="black" stroke-dasharray="4,4" stroke-width="1" marker-end="url(#arrow)"/><path d="M 464.63332748413086,244 L 595.5666580200195 244" fill="none" stroke="black" stroke-dasharray="none" stroke-width="1" marker-end="url(#arrow)"/><path d="M 595.5666580200195,252 L 605.5666580200195 252 L 605.5666580200195 269 L 595.5666580200195 269" fill="none" stroke="black" stroke-dasharray="4,4" stroke-width="1" marker-end="url(#arrow)"/><path d="M 595.5666580200195,281 L 605.5666580200195 281 L 605.5666580200195 298 L 595.5666580200195 298" fill="none" stroke="black" stroke-dasharray="4,4" stroke-width="1" marker-end="url(#arrow)"/><path d="M 78.32499694824219,331 L 278.2083282470703 331" fill="none" stroke="black" stroke-dasharray="none" stroke-width="1" marker-end="url(#arrow)"/><path d="M 78.32499694824219,37 L 78.32499694824219 351" fill="none" stroke="black" stroke-dasharray="none" stroke-width="1"/><path d="M 278.2083282470703,37 L 278.2083282470703 351" fill="none" stroke="black" stroke-dasharray="none" stroke-width="1"/><path d="M 464.63332748413086,37 L 464.63332748413086 351" fill="none" stroke="black" stroke-dasharray="none" stroke-width="1"/><path d="M 595.5666580200195,37 L 595.5666580200195 351" fill="none" stroke="black" stroke-dasharray="none" stroke-width="1"/><g transform="translate(90.32499694824219, 49)"><rect width="128.9000015258789" height="17" stroke="none" fill="white" stroke-width="1" transform="translate(0, 0)" rx="5"/><text fill="black" font-size="14" font-weight="bold" transform="translate(1, 12.5)" alignment-baseline="middle">Create first object Test</text></g><g transform="translate(124.78332901000977, 78)"><rect width="106.96666717529297" height="17" stroke="none" fill="white" stroke-width="1" transform="translate(0, 0)" rx="5"/><text fill="black" font-size="14" font-weight="normal" transform="translate(1, 12.5)" alignment-baseline="middle">Create new Action</text></g><g transform="translate(290.2083282470703, 107)"><rect width="90.61666870117188" height="17" stroke="none" fill="white" stroke-width="1" transform="translate(0, 0)" rx="5"/><text fill="black" font-size="14" font-weight="normal" transform="translate(1, 12.5)" alignment-baseline="middle">make the action</text></g><g transform="translate(303.6541576385498, 136)"><rect width="135.53334045410156" height="17" stroke="none" fill="white" stroke-width="1" transform="translate(0, 0)" rx="5"/><text fill="black" font-size="14" font-weight="normal" transform="translate(1, 12.5)" alignment-baseline="middle">Send new action in Test</text></g><g transform="translate(339.9124946594238, 165)"><rect width="63.016666412353516" height="17" stroke="none" fill="white" stroke-width="1" transform="translate(0, 0)" rx="5"/><text fill="black" font-size="14" font-weight="normal" transform="translate(1, 12.5)" alignment-baseline="middle">Edit action</text></g><g transform="translate(476.63332748413086, 194)"><rect width="117.23332977294922" height="17" stroke="none" fill="white" stroke-width="1" transform="translate(0, 0)" rx="5"/><text fill="black" font-size="14" font-weight="normal" transform="translate(1, 12.5)" alignment-baseline="middle">Delete action in Test</text></g><g transform="translate(504.4166603088379, 223)"><rect width="51.36666488647461" height="17" stroke="none" fill="white" stroke-width="1" transform="translate(0, 0)" rx="5"/><text fill="black" font-size="14" font-weight="normal" transform="translate(1, 12.5)" alignment-baseline="middle">Start test</text></g><g transform="translate(607.5666580200195, 252)"><rect width="188.35000610351562" height="17" stroke="none" fill="white" stroke-width="1" transform="translate(0, 0)" rx="5"/><text fill="black" font-size="14" font-weight="normal" transform="translate(1, 12.5)" alignment-baseline="middle">View test's actions success or fail</text></g><g transform="translate(607.5666580200195, 281)"><rect width="32.316667556762695" height="17" stroke="none" fill="white" stroke-width="1" transform="translate(0, 0)" rx="5"/><text fill="black" font-size="14" font-weight="normal" transform="translate(1, 12.5)" alignment-baseline="middle">Bilan</text></g><g transform="translate(112.44166564941406, 310)"><rect width="131.64999389648438" height="17" stroke="none" fill="white" stroke-width="1" transform="translate(0, 0)" rx="5"/><text fill="black" font-size="14" font-weight="normal" transform="translate(1, 12.5)" alignment-baseline="middle">Add new action in Test</text></g></svg>